<svg width="32" height="32" viewBox="0 0 32 32" fill="none" xmlns="http://www.w3.org/2000/svg">
  <rect width="32" height="32" rx="6" fill="#F59E0B"/>
  <path d="M12.5 8L15.2 16.8H16.8L19.5 8H22L18.4 19C18.1333 19.8 17.7833 20.4167 17.35 20.85C16.9167 21.2833 16.35 21.5 15.65 21.5C15.3833 21.5 15.125 21.4667 14.875 21.4C14.625 21.3333 14.425 21.25 14.275 21.15L14.85 19.25C14.9167 19.2833 14.9833 19.3167 15.05 19.35C15.1167 19.3833 15.1833 19.4 15.25 19.4C15.4833 19.4 15.675 19.3 15.825 19.1C15.975 18.9 16.1 18.6167 16.2 18.25L16.35 17.7L13 8H12.5Z" fill="white"/>
  <path d="M18.5 22V23.5H13.5V22H18.5Z" fill="white"/>
</svg> 